<svg xmlns="http://www.w3.org/2000/svg" width="48" height="48" fill="none" viewBox="0 0 48 48"><path fill="#333" fill-rule="evenodd" d="M6 11C6 10.4477 6.44772 10 7 10H41C41.5523 10 42 10.4477 42 11 42 11.5523 41.5523 12 41 12H7C6.44772 12 6 11.5523 6 11zM6 24C6 23.4477 6.44772 23 7 23H41C41.5523 23 42 23.4477 42 24 42 24.5523 41.5523 25 41 25H7C6.44772 25 6 24.5523 6 24zM6 37C6 36.4477 6.44772 36 7 36H41C41.5523 36 42 36.4477 42 37 42 37.5523 41.5523 38 41 38H7C6.44772 38 6 37.5523 6 37z" clip-rule="evenodd"/></svg>